<svg width="72" height="72" viewBox="0 0 72 72" fill="none" xmlns="http://www.w3.org/2000/svg">
<circle cx="36" cy="36" r="36" fill="white"/>
<path d="M60.4829 36C60.4829 49.5215 49.5215 60.4829 36 60.4829C22.4785 60.4829 11.5171 49.5215 11.5171 36C11.5171 22.4785 22.4785 11.5171 36 11.5171C49.5215 11.5171 60.4829 22.4785 60.4829 36Z" fill="white"/>
<path fill-rule="evenodd" clip-rule="evenodd" d="M33.9906 0.0554489C34.6568 0.0186027 35.3269 0 36 0C36.6731 0 37.3431 0.0186027 38.0094 0.0554489L36.7376 23.0545C36.4946 23.0411 36.2487 23.0342 36 23.0342C35.7513 23.0342 35.5054 23.0411 35.2624 23.0545L33.9906 0.0554489ZM26.036 1.39978C27.3238 1.0294 28.6403 0.729016 29.9807 0.502838L33.8132 23.216C33.3325 23.2971 32.8621 23.4045 32.403 23.5365L26.036 1.39978ZM42.0193 0.50284C43.3597 0.729017 44.6762 1.02941 45.964 1.39979L39.597 23.5365C39.1379 23.4045 38.6675 23.2971 38.1868 23.216L42.0193 0.50284ZM18.5751 4.49289C19.7494 3.84252 20.9648 3.25533 22.2166 2.73623L31.0399 24.0135C30.5926 24.199 30.1572 24.4093 29.7352 24.643L18.5751 4.49289ZM49.7834 2.73623C51.0352 3.25533 52.2506 3.84252 53.4249 4.49289L42.2648 24.643C41.8428 24.4093 41.4074 24.199 40.9601 24.0135L49.7834 2.73623ZM12.0086 9.15921C13.0094 8.26424 14.061 7.42414 15.1589 6.64372L28.504 25.4183C28.1071 25.7004 27.7262 26.0046 27.3631 26.3293L12.0086 9.15921ZM56.8411 6.64372C57.939 7.42414 58.9906 8.26424 59.9914 9.15921L44.6369 26.3293C44.2738 26.0046 43.8929 25.7004 43.496 25.4183L56.8411 6.64372ZM6.64372 15.1589C7.42414 14.061 8.26424 13.0093 9.15921 12.0086L26.3293 27.3631C26.0046 27.7262 25.7004 28.1071 25.4183 28.504L6.64372 15.1589ZM62.8408 12.0086C63.7358 13.0094 64.5759 14.061 65.3563 15.1589L46.5817 28.504C46.2996 28.1071 45.9954 27.7262 45.6707 27.3631L62.8408 12.0086ZM2.73623 22.2166C3.25533 20.9648 3.84252 19.7494 4.49289 18.5751L24.643 29.7352C24.4093 30.1572 24.199 30.5926 24.0135 31.0399L2.73623 22.2166ZM67.5071 18.5751C68.1575 19.7494 68.7447 20.9648 69.2638 22.2166L47.9865 31.0399C47.801 30.5926 47.5907 30.1572 47.357 29.7352L67.5071 18.5751ZM0.50284 29.9807C0.729017 28.6403 1.02941 27.3238 1.39979 26.036L23.5365 32.403C23.4045 32.8621 23.2971 33.3325 23.216 33.8132L0.50284 29.9807ZM70.6002 26.036C70.9706 27.3238 71.271 28.6403 71.4972 29.9807L48.784 33.8132C48.7029 33.3325 48.5955 32.8621 48.4634 32.403L70.6002 26.036ZM0 36C0 35.3269 0.0186027 34.6568 0.0554489 33.9906L23.0545 35.2624C23.0411 35.5054 23.0342 35.7513 23.0342 36C23.0342 36.2487 23.0411 36.4946 23.0545 36.7376L0.0554489 38.0094C0.0186027 37.3431 0 36.6731 0 36ZM71.9445 33.9906C71.9814 34.6568 72 35.3269 72 36C72 36.6731 71.9814 37.3431 71.9445 38.0094L48.9455 36.7376C48.9589 36.4946 48.9658 36.2487 48.9658 36C48.9658 35.7513 48.9589 35.5054 48.9455 35.2624L71.9445 33.9906ZM1.39978 45.964C1.0294 44.6762 0.729016 43.3597 0.502838 42.0193L23.216 38.1868C23.2971 38.6675 23.4045 39.1379 23.5365 39.597L1.39978 45.964ZM71.4972 42.0193C71.271 43.3597 70.9706 44.6762 70.6002 45.964L48.4634 39.597C48.5955 39.1379 48.7029 38.6675 48.784 38.1868L71.4972 42.0193ZM4.49289 53.4249C3.84252 52.2506 3.25533 51.0352 2.73623 49.7834L24.0135 40.9601C24.199 41.4074 24.4093 41.8428 24.643 42.2648L4.49289 53.4249ZM69.2638 49.7834C68.7447 51.0352 68.1575 52.2506 67.5071 53.4249L47.357 42.2648C47.5907 41.8428 47.801 41.4074 47.9865 40.9601L69.2638 49.7834ZM9.15921 59.9914C8.26424 58.9906 7.42414 57.939 6.64372 56.8411L25.4183 43.496C25.7004 43.8929 26.0046 44.2738 26.3293 44.6369L9.15921 59.9914ZM65.3563 56.8411C64.5759 57.939 63.7358 58.9906 62.8408 59.9914L45.6707 44.6369C45.9954 44.2738 46.2996 43.8929 46.5817 43.496L65.3563 56.8411ZM15.1589 65.3563C14.061 64.5759 13.0093 63.7358 12.0086 62.8408L27.3631 45.6707C27.7262 45.9954 28.1071 46.2996 28.504 46.5817L15.1589 65.3563ZM59.9914 62.8408C58.9906 63.7358 57.939 64.5759 56.8411 65.3563L43.496 46.5817C43.8929 46.2996 44.2738 45.9954 44.6369 45.6707L59.9914 62.8408ZM22.2166 69.2638C20.9648 68.7447 19.7494 68.1575 18.5751 67.5071L29.7352 47.357C30.1572 47.5907 30.5926 47.801 31.0399 47.9865L22.2166 69.2638ZM53.4249 67.5071C52.2506 68.1575 51.0352 68.7447 49.7834 69.2638L40.9601 47.9865C41.4074 47.801 41.8428 47.5907 42.2648 47.357L53.4249 67.5071ZM29.9807 71.4972C28.6403 71.271 27.3238 70.9706 26.036 70.6002L32.403 48.4634C32.8621 48.5955 33.3325 48.7029 33.8132 48.784L29.9807 71.4972ZM45.964 70.6002C44.6762 70.9706 43.3597 71.271 42.0193 71.4972L38.1868 48.784C38.6675 48.7029 39.1379 48.5955 39.597 48.4634L45.964 70.6002ZM36 72C35.3269 72 34.6568 71.9814 33.9906 71.9445L35.2624 48.9455C35.5054 48.9589 35.7513 48.9658 36 48.9658C36.2487 48.9658 36.4946 48.9589 36.7376 48.9455L38.0094 71.9445C37.3431 71.9814 36.6731 72 36 72Z" fill="black"/>
<path d="M60.4829 36.0724C60.4829 49.554 49.554 60.4829 36.0724 60.4829C22.5909 60.4829 11.662 49.554 11.662 36.0724C11.662 22.5909 22.5909 11.662 36.0724 11.662C49.554 11.662 60.4829 22.5909 60.4829 36.0724Z" fill="#FFA800"/>
<path fill-rule="evenodd" clip-rule="evenodd" d="M36.0724 58.7445C48.5939 58.7445 58.7445 48.5938 58.7445 36.0724C58.7445 23.551 48.5939 13.4004 36.0724 13.4004C23.551 13.4004 13.4004 23.551 13.4004 36.0724C13.4004 48.5938 23.551 58.7445 36.0724 58.7445ZM36.0724 60.4829C49.554 60.4829 60.4829 49.554 60.4829 36.0724C60.4829 22.5909 49.554 11.662 36.0724 11.662C22.5909 11.662 11.662 22.5909 11.662 36.0724C11.662 49.554 22.5909 60.4829 36.0724 60.4829Z" fill="black"/>
<path d="M57.5855 36C57.5855 47.8413 47.9862 57.4406 36.1449 57.4406C24.3036 57.4406 14.7043 47.8413 14.7043 36C14.7043 24.1587 24.3036 14.5594 36.1449 14.5594C47.9862 14.5594 57.5855 24.1587 57.5855 36Z" fill="#FFA800"/>
<path fill-rule="evenodd" clip-rule="evenodd" d="M36.1449 55.7022C47.0261 55.7022 55.8471 46.8812 55.8471 36C55.8471 25.1188 47.0261 16.2978 36.1449 16.2978C25.2637 16.2978 16.4427 25.1188 16.4427 36C16.4427 46.8812 25.2637 55.7022 36.1449 55.7022ZM36.1449 57.4406C47.9862 57.4406 57.5855 47.8413 57.5855 36C57.5855 24.1587 47.9862 14.5594 36.1449 14.5594C24.3036 14.5594 14.7043 24.1587 14.7043 36C14.7043 47.8413 24.3036 57.4406 36.1449 57.4406Z" fill="black"/>
<path fill-rule="evenodd" clip-rule="evenodd" d="M34.329 31.4277L33.1116 31.2437C30.9299 30.9141 29.4171 31.4813 28.4467 32.3542C27.4518 33.2492 26.9091 34.5715 26.8876 35.9399C26.8662 37.3073 27.3661 38.6328 28.3424 39.5434C29.2967 40.4336 30.8304 41.0419 33.1161 40.7562L34.338 40.6034L34.6421 43.0472L33.4202 43.1999C30.5313 43.561 28.233 42.8101 26.662 41.3448C25.1129 39.8999 24.3942 37.8735 24.4252 35.9027C24.4561 33.9328 25.2367 31.9302 26.8002 30.5236C28.3885 29.0949 30.6694 28.3837 33.4809 28.8086L34.6984 28.9926L34.329 31.4277Z" fill="black"/>
<path fill-rule="evenodd" clip-rule="evenodd" d="M30.3538 26.7284C30.8339 26.7284 31.223 27.1175 31.223 27.5976L31.223 29.0785C31.223 29.5585 30.8339 29.9477 30.3538 29.9477C29.8738 29.9477 29.4846 29.5585 29.4846 29.0785L29.4846 27.5976C29.4846 27.1175 29.8738 26.7284 30.3538 26.7284Z" fill="black"/>
<path fill-rule="evenodd" clip-rule="evenodd" d="M30.3538 42.0523C30.8339 42.0523 31.223 42.4415 31.223 42.9215L31.223 44.4024C31.223 44.8825 30.8339 45.2716 30.3538 45.2716C29.8738 45.2716 29.4846 44.8825 29.4846 44.4024L29.4846 42.9215C29.4846 42.4415 29.8738 42.0523 30.3538 42.0523Z" fill="black"/>
<path fill-rule="evenodd" clip-rule="evenodd" d="M46.858 31.4277L45.6406 31.2437C43.4589 30.9141 41.9461 31.4813 40.9757 32.3542C39.9808 33.2492 39.4381 34.5715 39.4166 35.9399C39.3952 37.3073 39.8951 38.6328 40.8713 39.5434C41.8257 40.4336 43.3594 41.0419 45.6451 40.7562L46.867 40.6034L47.1711 43.0472L45.9492 43.1999C43.0603 43.561 40.7619 42.8101 39.191 41.3448C37.6419 39.8999 36.9232 37.8735 36.9541 35.9027C36.985 33.9328 37.7657 31.9302 39.3292 30.5236C40.9175 29.0949 43.1984 28.3837 46.0099 28.8086L47.2274 28.9926L46.858 31.4277Z" fill="black"/>
<path fill-rule="evenodd" clip-rule="evenodd" d="M42.8237 26.7284C43.3038 26.7284 43.6929 27.1175 43.6929 27.5976L43.6929 29.0785C43.6929 29.5585 43.3038 29.9477 42.8237 29.9477C42.3437 29.9477 41.9545 29.5585 41.9545 29.0785L41.9545 27.5976C41.9545 27.1175 42.3437 26.7284 42.8237 26.7284Z" fill="black"/>
<path fill-rule="evenodd" clip-rule="evenodd" d="M42.8237 42.0523C43.3038 42.0523 43.6929 42.4415 43.6929 42.9215L43.6929 44.4024C43.6929 44.8825 43.3038 45.2716 42.8237 45.2716C42.3437 45.2716 41.9545 44.8825 41.9545 44.4024L41.9545 42.9215C41.9545 42.4415 42.3437 42.0523 42.8237 42.0523Z" fill="black"/>
</svg>
