<svg width="388" height="388" viewBox="0 0 388 388" fill="none" xmlns="http://www.w3.org/2000/svg">
<path d="M325.936 194C325.936 266.866 266.866 325.936 194 325.936C121.134 325.936 62.0644 266.866 62.0644 194C62.0644 121.134 121.134 62.0644 194 62.0644C266.866 62.0644 325.936 121.134 325.936 194Z" fill="white"/>
<path fill-rule="evenodd" clip-rule="evenodd" d="M183.171 0.298808C186.762 0.100248 190.372 0 194 0C197.628 0 201.238 0.100248 204.829 0.298808L197.975 124.238C196.665 124.166 195.34 124.129 194 124.129C192.66 124.129 191.335 124.166 190.025 124.238L183.171 0.298808ZM140.305 7.54328C147.245 5.54735 154.339 3.92859 161.563 2.70974L182.215 125.108C179.625 125.545 177.09 126.124 174.616 126.836L140.305 7.54328ZM226.437 2.70975C233.661 3.92859 240.755 5.54735 247.695 7.54329L213.384 126.836C210.91 126.124 208.375 125.545 205.785 125.108L226.437 2.70975ZM100.099 24.2117C106.427 20.7069 112.977 17.5426 119.723 14.7452L167.271 129.406C164.86 130.406 162.514 131.539 160.24 132.798L100.099 24.2117ZM268.277 14.7453C275.023 17.5426 281.573 20.7069 287.901 24.2117L227.76 132.798C225.486 131.539 223.14 130.406 220.729 129.406L268.277 14.7453ZM64.7128 49.3579C70.1059 44.5351 75.7732 40.0079 81.6899 35.8023L153.605 136.976C151.466 138.496 149.413 140.136 147.457 141.886L64.7128 49.3579ZM306.31 35.8023C312.227 40.0079 317.894 44.5351 323.287 49.358L240.543 141.886C238.587 140.136 236.534 138.496 234.395 136.976L306.31 35.8023ZM35.8023 81.6899C40.0079 75.7732 44.5351 70.1059 49.358 64.7128L141.886 147.457C140.136 149.413 138.496 151.466 136.976 153.605L35.8023 81.6899ZM338.642 64.7128C343.465 70.1059 347.992 75.7732 352.198 81.6899L251.024 153.605C249.504 151.466 247.864 149.413 246.114 147.457L338.642 64.7128ZM14.7453 119.723C17.5426 112.977 20.7069 106.427 24.2117 100.099L132.798 160.24C131.539 162.514 130.406 164.86 129.406 167.271L14.7453 119.723ZM363.788 100.099C367.293 106.427 370.457 112.977 373.255 119.723L258.594 167.271C257.594 164.86 256.461 162.514 255.202 160.24L363.788 100.099ZM2.70975 161.563C3.92859 154.339 5.54735 147.245 7.54329 140.305L126.836 174.616C126.124 177.09 125.545 179.625 125.108 182.215L2.70975 161.563ZM380.457 140.305C382.453 147.245 384.071 154.339 385.29 161.563L262.892 182.215C262.455 179.625 261.876 177.09 261.164 174.616L380.457 140.305ZM0 194C0 190.372 0.100248 186.762 0.298808 183.171L124.238 190.025C124.166 191.335 124.129 192.66 124.129 194C124.129 195.34 124.166 196.665 124.238 197.975L0.298808 204.829C0.100248 201.238 0 197.628 0 194ZM387.701 183.171C387.9 186.762 388 190.372 388 194C388 197.628 387.9 201.238 387.701 204.829L263.762 197.975C263.834 196.665 263.871 195.34 263.871 194C263.871 192.66 263.834 191.335 263.762 190.025L387.701 183.171ZM7.54328 247.695C5.54735 240.755 3.92859 233.661 2.70974 226.437L125.108 205.785C125.545 208.375 126.124 210.91 126.836 213.384L7.54328 247.695ZM385.29 226.437C384.071 233.661 382.453 240.755 380.457 247.695L261.164 213.384C261.876 210.91 262.455 208.375 262.892 205.785L385.29 226.437ZM24.2117 287.901C20.7069 281.573 17.5426 275.023 14.7452 268.277L129.406 220.729C130.406 223.14 131.539 225.486 132.798 227.76L24.2117 287.901ZM373.255 268.277C370.457 275.023 367.293 281.573 363.788 287.901L255.202 227.76C256.461 225.486 257.594 223.14 258.594 220.729L373.255 268.277ZM49.3579 323.287C44.5351 317.894 40.0079 312.227 35.8023 306.31L136.976 234.395C138.496 236.534 140.136 238.587 141.886 240.543L49.3579 323.287ZM352.198 306.31C347.992 312.227 343.465 317.894 338.642 323.287L246.114 240.543C247.864 238.587 249.504 236.534 251.024 234.395L352.198 306.31ZM81.6899 352.198C75.7732 347.992 70.1059 343.465 64.7128 338.642L147.457 246.114C149.413 247.864 151.466 249.504 153.605 251.024L81.6899 352.198ZM323.287 338.642C317.894 343.465 312.227 347.992 306.31 352.198L234.395 251.024C236.534 249.504 238.587 247.864 240.543 246.114L323.287 338.642ZM119.723 373.255C112.977 370.457 106.427 367.293 100.099 363.788L160.24 255.202C162.514 256.461 164.86 257.594 167.271 258.594L119.723 373.255ZM287.901 363.788C281.573 367.293 275.023 370.457 268.277 373.255L220.729 258.594C223.14 257.594 225.486 256.461 227.76 255.202L287.901 363.788ZM161.563 385.29C154.339 384.071 147.245 382.453 140.305 380.457L174.616 261.164C177.09 261.876 179.625 262.455 182.215 262.892L161.563 385.29ZM247.695 380.457C240.755 382.453 233.661 384.071 226.437 385.29L205.785 262.892C208.375 262.455 210.91 261.876 213.384 261.164L247.695 380.457ZM194 388C190.372 388 186.762 387.9 183.171 387.701L190.025 263.762C191.335 263.834 192.66 263.871 194 263.871C195.34 263.871 196.665 263.834 197.975 263.762L204.829 387.701C201.238 387.9 197.628 388 194 388Z" fill="black"/>
<path d="M325.936 194.39C325.936 267.041 267.041 325.936 194.39 325.936C121.74 325.936 62.8451 267.041 62.8451 194.39C62.8451 121.74 121.74 62.8451 194.39 62.8451C267.041 62.8451 325.936 121.74 325.936 194.39Z" fill="#FFA800"/>
<path fill-rule="evenodd" clip-rule="evenodd" d="M194.39 316.567C261.867 316.567 316.567 261.867 316.567 194.39C316.567 126.914 261.867 72.2133 194.39 72.2133C126.914 72.2133 72.2133 126.914 72.2133 194.39C72.2133 261.867 126.914 316.567 194.39 316.567ZM194.39 325.936C267.041 325.936 325.936 267.041 325.936 194.39C325.936 121.74 267.041 62.8451 194.39 62.8451C121.74 62.8451 62.8451 121.74 62.8451 194.39C62.8451 267.041 121.74 325.936 194.39 325.936Z" fill="black"/>
<path d="M310.322 194C310.322 257.812 258.592 309.541 194.781 309.541C130.969 309.541 79.2394 257.812 79.2394 194C79.2394 130.188 130.969 78.4588 194.781 78.4588C258.592 78.4588 310.322 130.188 310.322 194Z" fill="#FFA800"/>
<path fill-rule="evenodd" clip-rule="evenodd" d="M194.781 300.173C253.418 300.173 300.954 252.638 300.954 194C300.954 135.362 253.418 87.827 194.781 87.827C136.143 87.827 88.6077 135.362 88.6077 194C88.6077 252.638 136.143 300.173 194.781 300.173ZM194.781 309.541C258.592 309.541 310.322 257.812 310.322 194C310.322 130.188 258.592 78.4588 194.781 78.4588C130.969 78.4588 79.2394 130.188 79.2394 194C79.2394 257.812 130.969 309.541 194.781 309.541Z" fill="black"/>
<path fill-rule="evenodd" clip-rule="evenodd" d="M184.995 169.361L178.435 168.369C166.678 166.592 158.525 169.649 153.296 174.353C147.935 179.176 145.01 186.302 144.894 193.676C144.779 201.045 147.473 208.188 152.734 213.095C157.877 217.892 166.142 221.17 178.459 219.63L185.044 218.807L186.682 231.977L180.098 232.8C164.53 234.746 152.144 230.699 143.678 222.802C135.331 215.016 131.458 204.096 131.624 193.475C131.791 182.86 135.998 172.068 144.423 164.488C152.982 156.789 165.274 152.957 180.425 155.246L186.986 156.238L184.995 169.361Z" fill="black"/>
<path fill-rule="evenodd" clip-rule="evenodd" d="M163.573 144.036C166.16 144.036 168.257 146.133 168.257 148.72L168.257 156.701C168.257 159.288 166.16 161.385 163.573 161.385C160.986 161.385 158.889 159.288 158.889 156.701L158.889 148.72C158.889 146.133 160.986 144.036 163.573 144.036Z" fill="black"/>
<path fill-rule="evenodd" clip-rule="evenodd" d="M163.573 226.615C166.16 226.615 168.257 228.712 168.257 231.299L168.257 239.28C168.257 241.867 166.16 243.964 163.573 243.964C160.986 243.964 158.889 241.867 158.889 239.28L158.889 231.299C158.889 228.712 160.986 226.615 163.573 226.615Z" fill="black"/>
<path fill-rule="evenodd" clip-rule="evenodd" d="M252.513 169.361L245.952 168.369C234.195 166.592 226.043 169.649 220.814 174.353C215.452 179.176 212.527 186.302 212.412 193.676C212.296 201.045 214.99 208.188 220.251 213.095C225.394 217.892 233.659 221.17 245.976 219.63L252.561 218.807L254.2 231.977L247.615 232.8C232.047 234.746 219.662 230.699 211.196 222.802C202.848 215.016 198.975 204.096 199.142 193.475C199.308 182.86 203.515 172.068 211.941 164.488C220.5 156.789 232.791 152.957 247.942 155.246L254.503 156.238L252.513 169.361Z" fill="black"/>
<path fill-rule="evenodd" clip-rule="evenodd" d="M230.772 144.036C233.359 144.036 235.456 146.133 235.456 148.72L235.456 156.701C235.456 159.288 233.359 161.385 230.772 161.385C228.185 161.385 226.088 159.288 226.088 156.701L226.088 148.72C226.088 146.133 228.185 144.036 230.772 144.036Z" fill="black"/>
<path fill-rule="evenodd" clip-rule="evenodd" d="M230.772 226.615C233.359 226.615 235.456 228.712 235.456 231.299L235.456 239.28C235.456 241.867 233.359 243.964 230.772 243.964C228.185 243.964 226.088 241.867 226.088 239.28L226.088 231.299C226.088 228.712 228.185 226.615 230.772 226.615Z" fill="black"/>
</svg>
