<svg width="177" height="53" viewBox="0 0 177 53" fill="none" xmlns="http://www.w3.org/2000/svg">
<rect width="177" height="53" rx="16" fill="#C4C4C4"/>
<path d="M44.2812 28.5742H46.5312C46.4141 29.6523 46.1055 30.6172 45.6055 31.4688C45.1055 32.3203 44.3984 32.9961 43.4844 33.4961C42.5703 33.9883 41.4297 34.2344 40.0625 34.2344C39.0625 34.2344 38.1523 34.0469 37.332 33.6719C36.5195 33.2969 35.8203 32.7656 35.2344 32.0781C34.6484 31.3828 34.1953 30.5508 33.875 29.582C33.5625 28.6055 33.4062 27.5195 33.4062 26.3242V24.625C33.4062 23.4297 33.5625 22.3477 33.875 21.3789C34.1953 20.4023 34.6523 19.5664 35.2461 18.8711C35.8477 18.1758 36.5703 17.6406 37.4141 17.2656C38.2578 16.8906 39.207 16.7031 40.2617 16.7031C41.5508 16.7031 42.6406 16.9453 43.5312 17.4297C44.4219 17.9141 45.1133 18.5859 45.6055 19.4453C46.1055 20.2969 46.4141 21.2852 46.5312 22.4102H44.2812C44.1719 21.6133 43.9688 20.9297 43.6719 20.3594C43.375 19.7812 42.9531 19.3359 42.4062 19.0234C41.8594 18.7109 41.1445 18.5547 40.2617 18.5547C39.5039 18.5547 38.8359 18.6992 38.2578 18.9883C37.6875 19.2773 37.207 19.6875 36.8164 20.2188C36.4336 20.75 36.1445 21.3867 35.9492 22.1289C35.7539 22.8711 35.6562 23.6953 35.6562 24.6016V26.3242C35.6562 27.1602 35.7422 27.9453 35.9141 28.6797C36.0938 29.4141 36.3633 30.0586 36.7227 30.6133C37.082 31.168 37.5391 31.6055 38.0938 31.9258C38.6484 32.2383 39.3047 32.3945 40.0625 32.3945C41.0234 32.3945 41.7891 32.2422 42.3594 31.9375C42.9297 31.6328 43.3594 31.1953 43.6484 30.625C43.9453 30.0547 44.1562 29.3711 44.2812 28.5742ZM48.7109 27.8008V27.5312C48.7109 26.6172 48.8438 25.7695 49.1094 24.9883C49.375 24.1992 49.7578 23.5156 50.2578 22.9375C50.7578 22.3516 51.3633 21.8984 52.0742 21.5781C52.7852 21.25 53.582 21.0859 54.4648 21.0859C55.3555 21.0859 56.1562 21.25 56.8672 21.5781C57.5859 21.8984 58.1953 22.3516 58.6953 22.9375C59.2031 23.5156 59.5898 24.1992 59.8555 24.9883C60.1211 25.7695 60.2539 26.6172 60.2539 27.5312V27.8008C60.2539 28.7148 60.1211 29.5625 59.8555 30.3438C59.5898 31.125 59.2031 31.8086 58.6953 32.3945C58.1953 32.9727 57.5898 33.4258 56.8789 33.7539C56.1758 34.0742 55.3789 34.2344 54.4883 34.2344C53.5977 34.2344 52.7969 34.0742 52.0859 33.7539C51.375 33.4258 50.7656 32.9727 50.2578 32.3945C49.7578 31.8086 49.375 31.125 49.1094 30.3438C48.8438 29.5625 48.7109 28.7148 48.7109 27.8008ZM50.8789 27.5312V27.8008C50.8789 28.4336 50.9531 29.0312 51.1016 29.5938C51.25 30.1484 51.4727 30.6406 51.7695 31.0703C52.0742 31.5 52.4531 31.8398 52.9062 32.0898C53.3594 32.332 53.8867 32.4531 54.4883 32.4531C55.082 32.4531 55.6016 32.332 56.0469 32.0898C56.5 31.8398 56.875 31.5 57.1719 31.0703C57.4688 30.6406 57.6914 30.1484 57.8398 29.5938C57.9961 29.0312 58.0742 28.4336 58.0742 27.8008V27.5312C58.0742 26.9062 57.9961 26.3164 57.8398 25.7617C57.6914 25.1992 57.4648 24.7031 57.1602 24.2734C56.8633 23.8359 56.4883 23.4922 56.0352 23.2422C55.5898 22.9922 55.0664 22.8672 54.4648 22.8672C53.8711 22.8672 53.3477 22.9922 52.8945 23.2422C52.4492 23.4922 52.0742 23.8359 51.7695 24.2734C51.4727 24.7031 51.25 25.1992 51.1016 25.7617C50.9531 26.3164 50.8789 26.9062 50.8789 27.5312ZM70.7305 31.0703V21.3203H72.9102V34H70.8359L70.7305 31.0703ZM71.1406 28.3984L72.043 28.375C72.043 29.2188 71.9531 30 71.7734 30.7188C71.6016 31.4297 71.3203 32.0469 70.9297 32.5703C70.5391 33.0938 70.0273 33.5039 69.3945 33.8008C68.7617 34.0898 67.9922 34.2344 67.0859 34.2344C66.4688 34.2344 65.9023 34.1445 65.3867 33.9648C64.8789 33.7852 64.4414 33.5078 64.0742 33.1328C63.707 32.7578 63.4219 32.2695 63.2188 31.668C63.0234 31.0664 62.9258 30.3438 62.9258 29.5V21.3203H65.0938V29.5234C65.0938 30.0938 65.1562 30.5664 65.2812 30.9414C65.4141 31.3086 65.5898 31.6016 65.8086 31.8203C66.0352 32.0312 66.2852 32.1797 66.5586 32.2656C66.8398 32.3516 67.1289 32.3945 67.4258 32.3945C68.3477 32.3945 69.0781 32.2188 69.6172 31.8672C70.1562 31.5078 70.543 31.0273 70.7773 30.4258C71.0195 29.8164 71.1406 29.1406 71.1406 28.3984ZM78.3828 24.0273V34H76.2148V21.3203H78.2656L78.3828 24.0273ZM77.8672 27.1797L76.9648 27.1445C76.9727 26.2773 77.1016 25.4766 77.3516 24.7422C77.6016 24 77.9531 23.3555 78.4062 22.8086C78.8594 22.2617 79.3984 21.8398 80.0234 21.543C80.6562 21.2383 81.3555 21.0859 82.1211 21.0859C82.7461 21.0859 83.3086 21.1719 83.8086 21.3438C84.3086 21.5078 84.7344 21.7734 85.0859 22.1406C85.4453 22.5078 85.7188 22.9844 85.9062 23.5703C86.0938 24.1484 86.1875 24.8555 86.1875 25.6914V34H84.0078V25.668C84.0078 25.0039 83.9102 24.4727 83.7148 24.0742C83.5195 23.668 83.2344 23.375 82.8594 23.1953C82.4844 23.0078 82.0234 22.9141 81.4766 22.9141C80.9375 22.9141 80.4453 23.0273 80 23.2539C79.5625 23.4805 79.1836 23.793 78.8633 24.1914C78.5508 24.5898 78.3047 25.0469 78.125 25.5625C77.9531 26.0703 77.8672 26.6094 77.8672 27.1797ZM94.7891 21.3203V22.9844H87.9336V21.3203H94.7891ZM90.2539 18.2383H92.4219V30.8594C92.4219 31.2891 92.4883 31.6133 92.6211 31.832C92.7539 32.0508 92.9258 32.1953 93.1367 32.2656C93.3477 32.3359 93.5742 32.3711 93.8164 32.3711C93.9961 32.3711 94.1836 32.3555 94.3789 32.3242C94.582 32.2852 94.7344 32.2539 94.8359 32.2305L94.8477 34C94.6758 34.0547 94.4492 34.1055 94.168 34.1523C93.8945 34.207 93.5625 34.2344 93.1719 34.2344C92.6406 34.2344 92.1523 34.1289 91.707 33.918C91.2617 33.707 90.9062 33.3555 90.6406 32.8633C90.3828 32.3633 90.2539 31.6914 90.2539 30.8477V18.2383Z" fill="white"/>
<path d="M44.2812 28.5742H46.5312C46.4141 29.6523 46.1055 30.6172 45.6055 31.4688C45.1055 32.3203 44.3984 32.9961 43.4844 33.4961C42.5703 33.9883 41.4297 34.2344 40.0625 34.2344C39.0625 34.2344 38.1523 34.0469 37.332 33.6719C36.5195 33.2969 35.8203 32.7656 35.2344 32.0781C34.6484 31.3828 34.1953 30.5508 33.875 29.582C33.5625 28.6055 33.4062 27.5195 33.4062 26.3242V24.625C33.4062 23.4297 33.5625 22.3477 33.875 21.3789C34.1953 20.4023 34.6523 19.5664 35.2461 18.8711C35.8477 18.1758 36.5703 17.6406 37.4141 17.2656C38.2578 16.8906 39.207 16.7031 40.2617 16.7031C41.5508 16.7031 42.6406 16.9453 43.5312 17.4297C44.4219 17.9141 45.1133 18.5859 45.6055 19.4453C46.1055 20.2969 46.4141 21.2852 46.5312 22.4102H44.2812C44.1719 21.6133 43.9688 20.9297 43.6719 20.3594C43.375 19.7812 42.9531 19.3359 42.4062 19.0234C41.8594 18.7109 41.1445 18.5547 40.2617 18.5547C39.5039 18.5547 38.8359 18.6992 38.2578 18.9883C37.6875 19.2773 37.207 19.6875 36.8164 20.2188C36.4336 20.75 36.1445 21.3867 35.9492 22.1289C35.7539 22.8711 35.6562 23.6953 35.6562 24.6016V26.3242C35.6562 27.1602 35.7422 27.9453 35.9141 28.6797C36.0938 29.4141 36.3633 30.0586 36.7227 30.6133C37.082 31.168 37.5391 31.6055 38.0938 31.9258C38.6484 32.2383 39.3047 32.3945 40.0625 32.3945C41.0234 32.3945 41.7891 32.2422 42.3594 31.9375C42.9297 31.6328 43.3594 31.1953 43.6484 30.625C43.9453 30.0547 44.1562 29.3711 44.2812 28.5742ZM48.7109 27.8008V27.5312C48.7109 26.6172 48.8438 25.7695 49.1094 24.9883C49.375 24.1992 49.7578 23.5156 50.2578 22.9375C50.7578 22.3516 51.3633 21.8984 52.0742 21.5781C52.7852 21.25 53.582 21.0859 54.4648 21.0859C55.3555 21.0859 56.1562 21.25 56.8672 21.5781C57.5859 21.8984 58.1953 22.3516 58.6953 22.9375C59.2031 23.5156 59.5898 24.1992 59.8555 24.9883C60.1211 25.7695 60.2539 26.6172 60.2539 27.5312V27.8008C60.2539 28.7148 60.1211 29.5625 59.8555 30.3438C59.5898 31.125 59.2031 31.8086 58.6953 32.3945C58.1953 32.9727 57.5898 33.4258 56.8789 33.7539C56.1758 34.0742 55.3789 34.2344 54.4883 34.2344C53.5977 34.2344 52.7969 34.0742 52.0859 33.7539C51.375 33.4258 50.7656 32.9727 50.2578 32.3945C49.7578 31.8086 49.375 31.125 49.1094 30.3438C48.8438 29.5625 48.7109 28.7148 48.7109 27.8008ZM50.8789 27.5312V27.8008C50.8789 28.4336 50.9531 29.0312 51.1016 29.5938C51.25 30.1484 51.4727 30.6406 51.7695 31.0703C52.0742 31.5 52.4531 31.8398 52.9062 32.0898C53.3594 32.332 53.8867 32.4531 54.4883 32.4531C55.082 32.4531 55.6016 32.332 56.0469 32.0898C56.5 31.8398 56.875 31.5 57.1719 31.0703C57.4688 30.6406 57.6914 30.1484 57.8398 29.5938C57.9961 29.0312 58.0742 28.4336 58.0742 27.8008V27.5312C58.0742 26.9062 57.9961 26.3164 57.8398 25.7617C57.6914 25.1992 57.4648 24.7031 57.1602 24.2734C56.8633 23.8359 56.4883 23.4922 56.0352 23.2422C55.5898 22.9922 55.0664 22.8672 54.4648 22.8672C53.8711 22.8672 53.3477 22.9922 52.8945 23.2422C52.4492 23.4922 52.0742 23.8359 51.7695 24.2734C51.4727 24.7031 51.25 25.1992 51.1016 25.7617C50.9531 26.3164 50.8789 26.9062 50.8789 27.5312ZM70.7305 31.0703V21.3203H72.9102V34H70.8359L70.7305 31.0703ZM71.1406 28.3984L72.043 28.375C72.043 29.2188 71.9531 30 71.7734 30.7188C71.6016 31.4297 71.3203 32.0469 70.9297 32.5703C70.5391 33.0938 70.0273 33.5039 69.3945 33.8008C68.7617 34.0898 67.9922 34.2344 67.0859 34.2344C66.4688 34.2344 65.9023 34.1445 65.3867 33.9648C64.8789 33.7852 64.4414 33.5078 64.0742 33.1328C63.707 32.7578 63.4219 32.2695 63.2188 31.668C63.0234 31.0664 62.9258 30.3438 62.9258 29.5V21.3203H65.0938V29.5234C65.0938 30.0938 65.1562 30.5664 65.2812 30.9414C65.4141 31.3086 65.5898 31.6016 65.8086 31.8203C66.0352 32.0312 66.2852 32.1797 66.5586 32.2656C66.8398 32.3516 67.1289 32.3945 67.4258 32.3945C68.3477 32.3945 69.0781 32.2188 69.6172 31.8672C70.1562 31.5078 70.543 31.0273 70.7773 30.4258C71.0195 29.8164 71.1406 29.1406 71.1406 28.3984ZM78.3828 24.0273V34H76.2148V21.3203H78.2656L78.3828 24.0273ZM77.8672 27.1797L76.9648 27.1445C76.9727 26.2773 77.1016 25.4766 77.3516 24.7422C77.6016 24 77.9531 23.3555 78.4062 22.8086C78.8594 22.2617 79.3984 21.8398 80.0234 21.543C80.6562 21.2383 81.3555 21.0859 82.1211 21.0859C82.7461 21.0859 83.3086 21.1719 83.8086 21.3438C84.3086 21.5078 84.7344 21.7734 85.0859 22.1406C85.4453 22.5078 85.7188 22.9844 85.9062 23.5703C86.0938 24.1484 86.1875 24.8555 86.1875 25.6914V34H84.0078V25.668C84.0078 25.0039 83.9102 24.4727 83.7148 24.0742C83.5195 23.668 83.2344 23.375 82.8594 23.1953C82.4844 23.0078 82.0234 22.9141 81.4766 22.9141C80.9375 22.9141 80.4453 23.0273 80 23.2539C79.5625 23.4805 79.1836 23.793 78.8633 24.1914C78.5508 24.5898 78.3047 25.0469 78.125 25.5625C77.9531 26.0703 77.8672 26.6094 77.8672 27.1797ZM94.7891 21.3203V22.9844H87.9336V21.3203H94.7891ZM90.2539 18.2383H92.4219V30.8594C92.4219 31.2891 92.4883 31.6133 92.6211 31.832C92.7539 32.0508 92.9258 32.1953 93.1367 32.2656C93.3477 32.3359 93.5742 32.3711 93.8164 32.3711C93.9961 32.3711 94.1836 32.3555 94.3789 32.3242C94.582 32.2852 94.7344 32.2539 94.8359 32.2305L94.8477 34C94.6758 34.0547 94.4492 34.1055 94.168 34.1523C93.8945 34.207 93.5625 34.2344 93.1719 34.2344C92.6406 34.2344 92.1523 34.1289 91.707 33.918C91.2617 33.707 90.9062 33.3555 90.6406 32.8633C90.3828 32.3633 90.2539 31.6914 90.2539 30.8477V18.2383Z" fill="white" fill-opacity="0.2"/>
<path d="M107.961 28.5742H110.211C110.094 29.6523 109.785 30.6172 109.285 31.4688C108.785 32.3203 108.078 32.9961 107.164 33.4961C106.25 33.9883 105.109 34.2344 103.742 34.2344C102.742 34.2344 101.832 34.0469 101.012 33.6719C100.199 33.2969 99.5 32.7656 98.9141 32.0781C98.3281 31.3828 97.875 30.5508 97.5547 29.582C97.2422 28.6055 97.0859 27.5195 97.0859 26.3242V24.625C97.0859 23.4297 97.2422 22.3477 97.5547 21.3789C97.875 20.4023 98.332 19.5664 98.9258 18.8711C99.5273 18.1758 100.25 17.6406 101.094 17.2656C101.938 16.8906 102.887 16.7031 103.941 16.7031C105.23 16.7031 106.32 16.9453 107.211 17.4297C108.102 17.9141 108.793 18.5859 109.285 19.4453C109.785 20.2969 110.094 21.2852 110.211 22.4102H107.961C107.852 21.6133 107.648 20.9297 107.352 20.3594C107.055 19.7812 106.633 19.3359 106.086 19.0234C105.539 18.7109 104.824 18.5547 103.941 18.5547C103.184 18.5547 102.516 18.6992 101.938 18.9883C101.367 19.2773 100.887 19.6875 100.496 20.2188C100.113 20.75 99.8242 21.3867 99.6289 22.1289C99.4336 22.8711 99.3359 23.6953 99.3359 24.6016V26.3242C99.3359 27.1602 99.4219 27.9453 99.5938 28.6797C99.7734 29.4141 100.043 30.0586 100.402 30.6133C100.762 31.168 101.219 31.6055 101.773 31.9258C102.328 32.2383 102.984 32.3945 103.742 32.3945C104.703 32.3945 105.469 32.2422 106.039 31.9375C106.609 31.6328 107.039 31.1953 107.328 30.625C107.625 30.0547 107.836 29.3711 107.961 28.5742ZM112.391 27.8008V27.5312C112.391 26.6172 112.523 25.7695 112.789 24.9883C113.055 24.1992 113.438 23.5156 113.938 22.9375C114.438 22.3516 115.043 21.8984 115.754 21.5781C116.465 21.25 117.262 21.0859 118.145 21.0859C119.035 21.0859 119.836 21.25 120.547 21.5781C121.266 21.8984 121.875 22.3516 122.375 22.9375C122.883 23.5156 123.27 24.1992 123.535 24.9883C123.801 25.7695 123.934 26.6172 123.934 27.5312V27.8008C123.934 28.7148 123.801 29.5625 123.535 30.3438C123.27 31.125 122.883 31.8086 122.375 32.3945C121.875 32.9727 121.27 33.4258 120.559 33.7539C119.855 34.0742 119.059 34.2344 118.168 34.2344C117.277 34.2344 116.477 34.0742 115.766 33.7539C115.055 33.4258 114.445 32.9727 113.938 32.3945C113.438 31.8086 113.055 31.125 112.789 30.3438C112.523 29.5625 112.391 28.7148 112.391 27.8008ZM114.559 27.5312V27.8008C114.559 28.4336 114.633 29.0312 114.781 29.5938C114.93 30.1484 115.152 30.6406 115.449 31.0703C115.754 31.5 116.133 31.8398 116.586 32.0898C117.039 32.332 117.566 32.4531 118.168 32.4531C118.762 32.4531 119.281 32.332 119.727 32.0898C120.18 31.8398 120.555 31.5 120.852 31.0703C121.148 30.6406 121.371 30.1484 121.52 29.5938C121.676 29.0312 121.754 28.4336 121.754 27.8008V27.5312C121.754 26.9062 121.676 26.3164 121.52 25.7617C121.371 25.1992 121.145 24.7031 120.84 24.2734C120.543 23.8359 120.168 23.4922 119.715 23.2422C119.27 22.9922 118.746 22.8672 118.145 22.8672C117.551 22.8672 117.027 22.9922 116.574 23.2422C116.129 23.4922 115.754 23.8359 115.449 24.2734C115.152 24.7031 114.93 25.1992 114.781 25.7617C114.633 26.3164 114.559 26.9062 114.559 27.5312ZM129.008 21.3203V34H126.828V21.3203H129.008ZM126.664 17.957C126.664 17.6055 126.77 17.3086 126.98 17.0664C127.199 16.8242 127.52 16.7031 127.941 16.7031C128.355 16.7031 128.672 16.8242 128.891 17.0664C129.117 17.3086 129.23 17.6055 129.23 17.957C129.23 18.293 129.117 18.582 128.891 18.8242C128.672 19.0586 128.355 19.1758 127.941 19.1758C127.52 19.1758 127.199 19.0586 126.98 18.8242C126.77 18.582 126.664 18.293 126.664 17.957ZM134.656 24.0273V34H132.488V21.3203H134.539L134.656 24.0273ZM134.141 27.1797L133.238 27.1445C133.246 26.2773 133.375 25.4766 133.625 24.7422C133.875 24 134.227 23.3555 134.68 22.8086C135.133 22.2617 135.672 21.8398 136.297 21.543C136.93 21.2383 137.629 21.0859 138.395 21.0859C139.02 21.0859 139.582 21.1719 140.082 21.3438C140.582 21.5078 141.008 21.7734 141.359 22.1406C141.719 22.5078 141.992 22.9844 142.18 23.5703C142.367 24.1484 142.461 24.8555 142.461 25.6914V34H140.281V25.668C140.281 25.0039 140.184 24.4727 139.988 24.0742C139.793 23.668 139.508 23.375 139.133 23.1953C138.758 23.0078 138.297 22.9141 137.75 22.9141C137.211 22.9141 136.719 23.0273 136.273 23.2539C135.836 23.4805 135.457 23.793 135.137 24.1914C134.824 24.5898 134.578 25.0469 134.398 25.5625C134.227 26.0703 134.141 26.6094 134.141 27.1797Z" fill="#FFA800"/>
</svg>
